<?xml version="1.0" encoding="UTF-8" standalone="no"?>
<!-- Created with Inkscape (http://www.inkscape.org/) -->

<svg
   xmlns:dc="http://purl.org/dc/elements/1.1/"
   xmlns:cc="http://creativecommons.org/ns#"
   xmlns:rdf="http://www.w3.org/1999/02/22-rdf-syntax-ns#"
   xmlns:svg="http://www.w3.org/2000/svg"
   xmlns="http://www.w3.org/2000/svg"
   xmlns:sodipodi="http://sodipodi.sourceforge.net/DTD/sodipodi-0.dtd"
   xmlns:inkscape="http://www.inkscape.org/namespaces/inkscape"
   width="744.09448819"
   height="1052.3622047"
   id="svg2"
   version="1.1"
   inkscape:version="0.48.4 r9939"
   sodipodi:docname="New document 1">
  <defs
     id="defs4" />
  <sodipodi:namedview
     id="base"
     pagecolor="#ffffff"
     bordercolor="#666666"
     borderopacity="1.0"
     inkscape:pageopacity="0.0"
     inkscape:pageshadow="2"
     inkscape:zoom="0.056030702"
     inkscape:cx="7982.0628"
     inkscape:cy="-1887.7838"
     inkscape:document-units="px"
     inkscape:current-layer="layer1"
     showgrid="false"
     inkscape:window-width="1301"
     inkscape:window-height="744"
     inkscape:window-x="65"
     inkscape:window-y="24"
     inkscape:window-maximized="1" />
  <metadata
     id="metadata7">
    <rdf:RDF>
      <cc:Work
         rdf:about="">
        <dc:format>image/svg+xml</dc:format>
        <dc:type
           rdf:resource="http://purl.org/dc/dcmitype/StillImage" />
        <dc:title></dc:title>
      </cc:Work>
    </rdf:RDF>
  </metadata>
  <g
     inkscape:label="Layer 1"
     inkscape:groupmode="layer"
     id="layer1">
    <rect
       style="fill:#008080"
       id="rect2985"
       width="4693.4443"
       height="889.70917"
       x="-1568.5748"
       y="171.57677" />
    <path
       sodipodi:type="star"
       style="fill:#ffffff"
       id="path2989"
       sodipodi:sides="5"
       sodipodi:cx="6.3099942"
       sodipodi:cy="825.20239"
       sodipodi:r1="306.6683"
       sodipodi:r2="153.33415"
       sodipodi:arg1="0.93141042"
       sodipodi:arg2="1.559729"
       inkscape:flatsided="false"
       inkscape:rounded="0"
       inkscape:randomized="0"
       d="M 189.29982,1071.2922 8.0069587,978.52715 -171.18831,1075.282 -138.98613,874.19626 -286.37982,733.67031 -85.184913,702.15751 2.9160501,518.55287 95.059155,700.1626 296.90224,727.21465 152.6549,870.96844 z"
       inkscape:transform-center-x="1.0487863"
       inkscape:transform-center-y="-28.284969"
       transform="translate(-1261.9988,-309.1897)" />
    <path
       sodipodi:type="star"
       style="fill:#ffffff"
       id="path2987"
       sodipodi:sides="5"
       sodipodi:cx="-542.65948"
       sodipodi:cy="863.06238"
       sodipodi:r1="217.12248"
       sodipodi:r2="108.56124"
       sodipodi:arg1="0.95054684"
       sodipodi:arg2="1.5788654"
       inkscape:flatsided="false"
       inkscape:rounded="0"
       inkscape:randomized="0"
       d="m -416.45961,1039.7422 -127.07585,-68.12212 -128.15862,66.06262 25.51939,-141.90725 -102.43244,-101.47163 142.84771,-19.58136 64.85189,-128.7755 62.76535,129.80528 142.51311,21.88399 -104.05659,99.80543 z"
       inkscape:transform-center-x="-0.54138294"
       inkscape:transform-center-y="-20.217791"
       transform="translate(-252.39976,12.619941)" />
    <path
       sodipodi:type="star"
       style="fill:#ffffff"
       id="path2987-3"
       sodipodi:sides="5"
       sodipodi:cx="-542.65948"
       sodipodi:cy="863.06238"
       sodipodi:r1="217.12248"
       sodipodi:r2="108.56124"
       sodipodi:arg1="0.95054684"
       sodipodi:arg2="1.5788654"
       inkscape:flatsided="false"
       inkscape:rounded="0"
       inkscape:randomized="0"
       d="m -416.45961,1039.7422 -127.07585,-68.12212 -128.15862,66.06262 25.51939,-141.90725 -102.43244,-101.47163 142.84771,-19.58136 64.85189,-128.7755 62.76535,129.80528 142.51311,21.88399 -104.05659,99.80543 z"
       inkscape:transform-center-x="-0.54138294"
       inkscape:transform-center-y="-20.217791"
       transform="translate(687.24796,-11.332193)" />
    <path
       sodipodi:type="star"
       style="fill:#ffffff"
       id="path2989-5"
       sodipodi:sides="5"
       sodipodi:cx="6.3099942"
       sodipodi:cy="825.20239"
       sodipodi:r1="306.6683"
       sodipodi:r2="153.33415"
       sodipodi:arg1="0.93141042"
       sodipodi:arg2="1.559729"
       inkscape:flatsided="false"
       inkscape:rounded="0"
       inkscape:randomized="0"
       d="M 189.29982,1071.2922 8.0069587,978.52715 -171.18831,1075.282 -138.98613,874.19626 -286.37982,733.67031 -85.184913,702.15751 2.9160501,518.55287 95.059155,700.1626 296.90224,727.21465 152.6549,870.96844 z"
       inkscape:transform-center-x="1.0487863"
       inkscape:transform-center-y="-28.284969"
       transform="translate(-339.69088,-299.83471)" />
    <path
       sodipodi:type="star"
       style="fill:#ffffff"
       id="path2989-8"
       sodipodi:sides="5"
       sodipodi:cx="6.3099942"
       sodipodi:cy="825.20239"
       sodipodi:r1="306.6683"
       sodipodi:r2="153.33415"
       sodipodi:arg1="0.93141042"
       sodipodi:arg2="1.559729"
       inkscape:flatsided="false"
       inkscape:rounded="0"
       inkscape:randomized="0"
       d="M 189.29982,1071.2922 8.0069587,978.52715 -171.18831,1075.282 -138.98613,874.19626 -286.37982,733.67031 -85.184913,702.15751 2.9160501,518.55287 95.059155,700.1626 296.90224,727.21465 152.6549,870.96844 z"
       inkscape:transform-center-x="1.0487863"
       inkscape:transform-center-y="-28.284969"
       transform="translate(587.87822,-337.69467)" />
    <path
       sodipodi:type="star"
       style="fill:#ffffff"
       id="path2987-3-2"
       sodipodi:sides="5"
       sodipodi:cx="-542.65948"
       sodipodi:cy="863.06238"
       sodipodi:r1="217.12248"
       sodipodi:r2="108.56124"
       sodipodi:arg1="0.95054684"
       sodipodi:arg2="1.5788654"
       inkscape:flatsided="false"
       inkscape:rounded="0"
       inkscape:randomized="0"
       d="m -416.45961,1039.7422 -127.07585,-68.12212 -128.15862,66.06262 25.51939,-141.90725 -102.43244,-101.47163 142.84771,-19.58136 64.85189,-128.7755 62.76535,129.80528 142.51311,21.88399 -104.05659,99.80543 z"
       inkscape:transform-center-x="-0.54138294"
       inkscape:transform-center-y="-20.217791"
       transform="translate(1576.9571,7.5977895)" />
    <path
       sodipodi:type="star"
       style="fill:#ffffff"
       id="path2989-8-3"
       sodipodi:sides="5"
       sodipodi:cx="6.3099942"
       sodipodi:cy="825.20239"
       sodipodi:r1="306.6683"
       sodipodi:r2="153.33415"
       sodipodi:arg1="0.93141042"
       sodipodi:arg2="1.559729"
       inkscape:flatsided="false"
       inkscape:rounded="0"
       inkscape:randomized="0"
       d="M 189.29982,1071.2922 8.0069587,978.52715 -171.18831,1075.282 -138.98613,874.19626 -286.37982,733.67031 -85.184913,702.15751 2.9160501,518.55287 95.059155,700.1626 296.90224,727.21465 152.6549,870.96844 z"
       inkscape:transform-center-x="1.0487863"
       inkscape:transform-center-y="-28.284969"
       transform="translate(1509.1373,-325.07469)" />
    <path
       sodipodi:type="star"
       style="fill:#ffffff"
       id="path2987-3-2-7"
       sodipodi:sides="5"
       sodipodi:cx="-542.65948"
       sodipodi:cy="863.06238"
       sodipodi:r1="217.12248"
       sodipodi:r2="108.56124"
       sodipodi:arg1="0.95054684"
       sodipodi:arg2="1.5788654"
       inkscape:flatsided="false"
       inkscape:rounded="0"
       inkscape:randomized="0"
       d="m -416.45961,1039.7422 -127.07585,-68.12212 -128.15862,66.06262 25.51939,-141.90725 -102.43244,-101.47163 142.84771,-19.58136 64.85189,-128.7755 62.76535,129.80528 142.51311,21.88399 -104.05659,99.80543 z"
       inkscape:transform-center-x="-0.54138294"
       inkscape:transform-center-y="-20.217791"
       transform="translate(2510.8362,-5.0221981)" />
    <path
       sodipodi:type="star"
       style="fill:#ffffff"
       id="path2989-8-3-0"
       sodipodi:sides="5"
       sodipodi:cx="6.3099942"
       sodipodi:cy="825.20239"
       sodipodi:r1="306.6683"
       sodipodi:r2="153.33415"
       sodipodi:arg1="0.93141042"
       sodipodi:arg2="1.559729"
       inkscape:flatsided="false"
       inkscape:rounded="0"
       inkscape:randomized="0"
       d="M 189.29982,1071.2922 8.0069587,978.52715 -171.18831,1075.282 -138.98613,874.19626 -286.37982,733.67031 -85.184913,702.15751 2.9160501,518.55287 95.059155,700.1626 296.90224,727.21465 152.6549,870.96844 z"
       inkscape:transform-center-x="1.0487863"
       inkscape:transform-center-y="-28.284969"
       transform="translate(2392.5365,-318.76469)" />
    <path
       sodipodi:type="star"
       style="fill:#ffffff"
       id="path2987-3-2-7-4"
       sodipodi:sides="5"
       sodipodi:cx="-542.65948"
       sodipodi:cy="863.06238"
       sodipodi:r1="217.12248"
       sodipodi:r2="108.56124"
       sodipodi:arg1="0.95054684"
       sodipodi:arg2="1.5788654"
       inkscape:flatsided="false"
       inkscape:rounded="0"
       inkscape:randomized="0"
       d="m -416.45961,1039.7422 -127.07585,-68.12212 -128.15862,66.06262 25.51939,-141.90725 -102.43244,-101.47163 142.84771,-19.58136 64.85189,-128.7755 62.76535,129.80528 142.51311,21.88399 -104.05659,99.80543 z"
       inkscape:transform-center-x="-0.54138294"
       inkscape:transform-center-y="-20.217791"
       transform="translate(3388.7718,22.120336)" />
    <rect
       style="fill:#008080"
       id="rect2985-7"
       width="4693.4443"
       height="889.70917"
       x="3123.4932"
       y="169.95905" />
    <path
       sodipodi:type="star"
       style="fill:#ffffff"
       id="path2989-7"
       sodipodi:sides="5"
       sodipodi:cx="6.3099942"
       sodipodi:cy="825.20239"
       sodipodi:r1="306.6683"
       sodipodi:r2="153.33415"
       sodipodi:arg1="0.93141042"
       sodipodi:arg2="1.559729"
       inkscape:flatsided="false"
       inkscape:rounded="0"
       inkscape:randomized="0"
       d="M 189.29982,1071.2922 8.0069587,978.52715 -171.18831,1075.282 -138.98613,874.19626 -286.37982,733.67031 -85.184913,702.15751 2.9160501,518.55287 95.059155,700.1626 296.90224,727.21465 152.6549,870.96844 z"
       inkscape:transform-center-x="1.0487863"
       inkscape:transform-center-y="-28.284969"
       transform="translate(3430.0691,-310.80745)" />
    <path
       sodipodi:type="star"
       style="fill:#ffffff"
       id="path2987-9"
       sodipodi:sides="5"
       sodipodi:cx="-542.65948"
       sodipodi:cy="863.06238"
       sodipodi:r1="217.12248"
       sodipodi:r2="108.56124"
       sodipodi:arg1="0.95054684"
       sodipodi:arg2="1.5788654"
       inkscape:flatsided="false"
       inkscape:rounded="0"
       inkscape:randomized="0"
       d="m -416.45961,1039.7422 -127.07585,-68.12212 -128.15862,66.06262 25.51939,-141.90725 -102.43244,-101.47163 142.84771,-19.58136 64.85189,-128.7755 62.76535,129.80528 142.51311,21.88399 -104.05659,99.80543 z"
       inkscape:transform-center-x="-0.54138294"
       inkscape:transform-center-y="-20.217791"
       transform="translate(4439.6682,11.002191)" />
    <path
       sodipodi:type="star"
       style="fill:#ffffff"
       id="path2987-3-27"
       sodipodi:sides="5"
       sodipodi:cx="-542.65948"
       sodipodi:cy="863.06238"
       sodipodi:r1="217.12248"
       sodipodi:r2="108.56124"
       sodipodi:arg1="0.95054684"
       sodipodi:arg2="1.5788654"
       inkscape:flatsided="false"
       inkscape:rounded="0"
       inkscape:randomized="0"
       d="m -416.45961,1039.7422 -127.07585,-68.12212 -128.15862,66.06262 25.51939,-141.90725 -102.43244,-101.47163 142.84771,-19.58136 64.85189,-128.7755 62.76535,129.80528 142.51311,21.88399 -104.05659,99.80543 z"
       inkscape:transform-center-x="-0.54138294"
       inkscape:transform-center-y="-20.217791"
       transform="translate(5379.3159,-12.949939)" />
    <path
       sodipodi:type="star"
       style="fill:#ffffff"
       id="path2989-5-0"
       sodipodi:sides="5"
       sodipodi:cx="6.3099942"
       sodipodi:cy="825.20239"
       sodipodi:r1="306.6683"
       sodipodi:r2="153.33415"
       sodipodi:arg1="0.93141042"
       sodipodi:arg2="1.559729"
       inkscape:flatsided="false"
       inkscape:rounded="0"
       inkscape:randomized="0"
       d="M 189.29982,1071.2922 8.0069587,978.52715 -171.18831,1075.282 -138.98613,874.19626 -286.37982,733.67031 -85.184913,702.15751 2.9160501,518.55287 95.059155,700.1626 296.90224,727.21465 152.6549,870.96844 z"
       inkscape:transform-center-x="1.0487863"
       inkscape:transform-center-y="-28.284969"
       transform="translate(4352.377,-301.45246)" />
    <path
       sodipodi:type="star"
       style="fill:#ffffff"
       id="path2989-8-1"
       sodipodi:sides="5"
       sodipodi:cx="6.3099942"
       sodipodi:cy="825.20239"
       sodipodi:r1="306.6683"
       sodipodi:r2="153.33415"
       sodipodi:arg1="0.93141042"
       sodipodi:arg2="1.559729"
       inkscape:flatsided="false"
       inkscape:rounded="0"
       inkscape:randomized="0"
       d="M 189.29982,1071.2922 8.0069587,978.52715 -171.18831,1075.282 -138.98613,874.19626 -286.37982,733.67031 -85.184913,702.15751 2.9160501,518.55287 95.059155,700.1626 296.90224,727.21465 152.6549,870.96844 z"
       inkscape:transform-center-x="1.0487863"
       inkscape:transform-center-y="-28.284969"
       transform="translate(5279.9461,-339.31242)" />
    <path
       sodipodi:type="star"
       style="fill:#ffffff"
       id="path2987-3-2-5"
       sodipodi:sides="5"
       sodipodi:cx="-542.65948"
       sodipodi:cy="863.06238"
       sodipodi:r1="217.12248"
       sodipodi:r2="108.56124"
       sodipodi:arg1="0.95054684"
       sodipodi:arg2="1.5788654"
       inkscape:flatsided="false"
       inkscape:rounded="0"
       inkscape:randomized="0"
       d="m -416.45961,1039.7422 -127.07585,-68.12212 -128.15862,66.06262 25.51939,-141.90725 -102.43244,-101.47163 142.84771,-19.58136 64.85189,-128.7755 62.76535,129.80528 142.51311,21.88399 -104.05659,99.80543 z"
       inkscape:transform-center-x="-0.54138294"
       inkscape:transform-center-y="-20.217791"
       transform="translate(6269.025,5.9800407)" />
    <path
       sodipodi:type="star"
       style="fill:#ffffff"
       id="path2989-8-3-4"
       sodipodi:sides="5"
       sodipodi:cx="6.3099942"
       sodipodi:cy="825.20239"
       sodipodi:r1="306.6683"
       sodipodi:r2="153.33415"
       sodipodi:arg1="0.93141042"
       sodipodi:arg2="1.559729"
       inkscape:flatsided="false"
       inkscape:rounded="0"
       inkscape:randomized="0"
       d="M 189.29982,1071.2922 8.0069587,978.52715 -171.18831,1075.282 -138.98613,874.19626 -286.37982,733.67031 -85.184913,702.15751 2.9160501,518.55287 95.059155,700.1626 296.90224,727.21465 152.6549,870.96844 z"
       inkscape:transform-center-x="1.0487863"
       inkscape:transform-center-y="-28.284969"
       transform="translate(6201.2052,-326.69244)" />
    <path
       sodipodi:type="star"
       style="fill:#ffffff"
       id="path2987-3-2-7-6"
       sodipodi:sides="5"
       sodipodi:cx="-542.65948"
       sodipodi:cy="863.06238"
       sodipodi:r1="217.12248"
       sodipodi:r2="108.56124"
       sodipodi:arg1="0.95054684"
       sodipodi:arg2="1.5788654"
       inkscape:flatsided="false"
       inkscape:rounded="0"
       inkscape:randomized="0"
       d="m -416.45961,1039.7422 -127.07585,-68.12212 -128.15862,66.06262 25.51939,-141.90725 -102.43244,-101.47163 142.84771,-19.58136 64.85189,-128.7755 62.76535,129.80528 142.51311,21.88399 -104.05659,99.80543 z"
       inkscape:transform-center-x="-0.54138294"
       inkscape:transform-center-y="-20.217791"
       transform="translate(7202.9041,-6.6399493)" />
    <path
       sodipodi:type="star"
       style="fill:#ffffff"
       id="path2989-8-3-0-4"
       sodipodi:sides="5"
       sodipodi:cx="6.3099942"
       sodipodi:cy="825.20239"
       sodipodi:r1="306.6683"
       sodipodi:r2="153.33415"
       sodipodi:arg1="0.93141042"
       sodipodi:arg2="1.559729"
       inkscape:flatsided="false"
       inkscape:rounded="0"
       inkscape:randomized="0"
       d="M 189.29982,1071.2922 8.0069587,978.52715 -171.18831,1075.282 -138.98613,874.19626 -286.37982,733.67031 -85.184913,702.15751 2.9160501,518.55287 95.059155,700.1626 296.90224,727.21465 152.6549,870.96844 z"
       inkscape:transform-center-x="1.0487863"
       inkscape:transform-center-y="-28.284969"
       transform="translate(7084.6044,-320.38244)" />
    <path
       sodipodi:type="star"
       style="fill:#ffffff"
       id="path2987-3-2-7-4-9"
       sodipodi:sides="5"
       sodipodi:cx="-542.65948"
       sodipodi:cy="863.06238"
       sodipodi:r1="217.12248"
       sodipodi:r2="108.56124"
       sodipodi:arg1="0.95054684"
       sodipodi:arg2="1.5788654"
       inkscape:flatsided="false"
       inkscape:rounded="0"
       inkscape:randomized="0"
       d="m -416.45961,1039.7422 -127.07585,-68.12212 -128.15862,66.06262 25.51939,-141.90725 -102.43244,-101.47163 142.84771,-19.58136 64.85189,-128.7755 62.76535,129.80528 142.51311,21.88399 -104.05659,99.80543 z"
       inkscape:transform-center-x="-0.54138294"
       inkscape:transform-center-y="-20.217791"
       transform="translate(8080.8397,20.502591)" />
    <rect
       style="fill:#008080"
       id="rect2985-9"
       width="4693.4443"
       height="889.70917"
       x="7808.4248"
       y="169.959" />
    <path
       sodipodi:type="star"
       style="fill:#ffffff"
       id="path2989-2"
       sodipodi:sides="5"
       sodipodi:cx="6.3099942"
       sodipodi:cy="825.20239"
       sodipodi:r1="306.6683"
       sodipodi:r2="153.33415"
       sodipodi:arg1="0.93141042"
       sodipodi:arg2="1.559729"
       inkscape:flatsided="false"
       inkscape:rounded="0"
       inkscape:randomized="0"
       d="M 189.29982,1071.2922 8.0069587,978.52715 -171.18831,1075.282 -138.98613,874.19626 -286.37982,733.67031 -85.184913,702.15751 2.9160501,518.55287 95.059155,700.1626 296.90224,727.21465 152.6549,870.96844 z"
       inkscape:transform-center-x="1.0487863"
       inkscape:transform-center-y="-28.284969"
       transform="translate(8115.0006,-310.80748)" />
    <path
       sodipodi:type="star"
       style="fill:#ffffff"
       id="path2987-90"
       sodipodi:sides="5"
       sodipodi:cx="-542.65948"
       sodipodi:cy="863.06238"
       sodipodi:r1="217.12248"
       sodipodi:r2="108.56124"
       sodipodi:arg1="0.95054684"
       sodipodi:arg2="1.5788654"
       inkscape:flatsided="false"
       inkscape:rounded="0"
       inkscape:randomized="0"
       d="m -416.45961,1039.7422 -127.07585,-68.12212 -128.15862,66.06262 25.51939,-141.90725 -102.43244,-101.47163 142.84771,-19.58136 64.85189,-128.7755 62.76535,129.80528 142.51311,21.88399 -104.05659,99.80543 z"
       inkscape:transform-center-x="-0.54138294"
       inkscape:transform-center-y="-20.217791"
       transform="translate(9124.5997,11.002222)" />
    <path
       sodipodi:type="star"
       style="fill:#ffffff"
       id="path2987-3-6"
       sodipodi:sides="5"
       sodipodi:cx="-542.65948"
       sodipodi:cy="863.06238"
       sodipodi:r1="217.12248"
       sodipodi:r2="108.56124"
       sodipodi:arg1="0.95054684"
       sodipodi:arg2="1.5788654"
       inkscape:flatsided="false"
       inkscape:rounded="0"
       inkscape:randomized="0"
       d="m -416.45961,1039.7422 -127.07585,-68.12212 -128.15862,66.06262 25.51939,-141.90725 -102.43244,-101.47163 142.84771,-19.58136 64.85189,-128.7755 62.76535,129.80528 142.51311,21.88399 -104.05659,99.80543 z"
       inkscape:transform-center-x="-0.54138294"
       inkscape:transform-center-y="-20.217791"
       transform="translate(10064.247,-12.949978)" />
    <path
       sodipodi:type="star"
       style="fill:#ffffff"
       id="path2989-5-2"
       sodipodi:sides="5"
       sodipodi:cx="6.3099942"
       sodipodi:cy="825.20239"
       sodipodi:r1="306.6683"
       sodipodi:r2="153.33415"
       sodipodi:arg1="0.93141042"
       sodipodi:arg2="1.559729"
       inkscape:flatsided="false"
       inkscape:rounded="0"
       inkscape:randomized="0"
       d="M 189.29982,1071.2922 8.0069587,978.52715 -171.18831,1075.282 -138.98613,874.19626 -286.37982,733.67031 -85.184913,702.15751 2.9160501,518.55287 95.059155,700.1626 296.90224,727.21465 152.6549,870.96844 z"
       inkscape:transform-center-x="1.0487863"
       inkscape:transform-center-y="-28.284969"
       transform="translate(9037.3085,-301.45248)" />
    <path
       sodipodi:type="star"
       style="fill:#ffffff"
       id="path2989-8-0"
       sodipodi:sides="5"
       sodipodi:cx="6.3099942"
       sodipodi:cy="825.20239"
       sodipodi:r1="306.6683"
       sodipodi:r2="153.33415"
       sodipodi:arg1="0.93141042"
       sodipodi:arg2="1.559729"
       inkscape:flatsided="false"
       inkscape:rounded="0"
       inkscape:randomized="0"
       d="M 189.29982,1071.2922 8.0069587,978.52715 -171.18831,1075.282 -138.98613,874.19626 -286.37982,733.67031 -85.184913,702.15751 2.9160501,518.55287 95.059155,700.1626 296.90224,727.21465 152.6549,870.96844 z"
       inkscape:transform-center-x="1.0487863"
       inkscape:transform-center-y="-28.284969"
       transform="translate(9964.8776,-339.31238)" />
    <path
       sodipodi:type="star"
       style="fill:#ffffff"
       id="path2987-3-2-77"
       sodipodi:sides="5"
       sodipodi:cx="-542.65948"
       sodipodi:cy="863.06238"
       sodipodi:r1="217.12248"
       sodipodi:r2="108.56124"
       sodipodi:arg1="0.95054684"
       sodipodi:arg2="1.5788654"
       inkscape:flatsided="false"
       inkscape:rounded="0"
       inkscape:randomized="0"
       d="m -416.45961,1039.7422 -127.07585,-68.12212 -128.15862,66.06262 25.51939,-141.90725 -102.43244,-101.47163 142.84771,-19.58136 64.85189,-128.7755 62.76535,129.80528 142.51311,21.88399 -104.05659,99.80543 z"
       inkscape:transform-center-x="-0.54138294"
       inkscape:transform-center-y="-20.217791"
       transform="translate(10953.957,5.9800218)" />
    <path
       sodipodi:type="star"
       style="fill:#ffffff"
       id="path2989-8-3-1"
       sodipodi:sides="5"
       sodipodi:cx="6.3099942"
       sodipodi:cy="825.20239"
       sodipodi:r1="306.6683"
       sodipodi:r2="153.33415"
       sodipodi:arg1="0.93141042"
       sodipodi:arg2="1.559729"
       inkscape:flatsided="false"
       inkscape:rounded="0"
       inkscape:randomized="0"
       d="M 189.29982,1071.2922 8.0069587,978.52715 -171.18831,1075.282 -138.98613,874.19626 -286.37982,733.67031 -85.184913,702.15751 2.9160501,518.55287 95.059155,700.1626 296.90224,727.21465 152.6549,870.96844 z"
       inkscape:transform-center-x="1.0487863"
       inkscape:transform-center-y="-28.284969"
       transform="translate(10886.137,-326.69248)" />
    <path
       sodipodi:type="star"
       style="fill:#ffffff"
       id="path2987-3-2-7-9"
       sodipodi:sides="5"
       sodipodi:cx="-542.65948"
       sodipodi:cy="863.06238"
       sodipodi:r1="217.12248"
       sodipodi:r2="108.56124"
       sodipodi:arg1="0.95054684"
       sodipodi:arg2="1.5788654"
       inkscape:flatsided="false"
       inkscape:rounded="0"
       inkscape:randomized="0"
       d="m -416.45961,1039.7422 -127.07585,-68.12212 -128.15862,66.06262 25.51939,-141.90725 -102.43244,-101.47163 142.84771,-19.58136 64.85189,-128.7755 62.76535,129.80528 142.51311,21.88399 -104.05659,99.80543 z"
       inkscape:transform-center-x="-0.54138294"
       inkscape:transform-center-y="-20.217791"
       transform="translate(11887.836,-6.6399782)" />
    <path
       sodipodi:type="star"
       style="fill:#ffffff"
       id="path2989-8-3-0-7"
       sodipodi:sides="5"
       sodipodi:cx="6.3099942"
       sodipodi:cy="825.20239"
       sodipodi:r1="306.6683"
       sodipodi:r2="153.33415"
       sodipodi:arg1="0.93141042"
       sodipodi:arg2="1.559729"
       inkscape:flatsided="false"
       inkscape:rounded="0"
       inkscape:randomized="0"
       d="M 189.29982,1071.2922 8.0069587,978.52715 -171.18831,1075.282 -138.98613,874.19626 -286.37982,733.67031 -85.184913,702.15751 2.9160501,518.55287 95.059155,700.1626 296.90224,727.21465 152.6549,870.96844 z"
       inkscape:transform-center-x="1.0487863"
       inkscape:transform-center-y="-28.284969"
       transform="translate(11769.536,-320.38248)" />
    <path
       sodipodi:type="star"
       style="fill:#ffffff"
       id="path2987-3-2-7-4-1"
       sodipodi:sides="5"
       sodipodi:cx="-542.65948"
       sodipodi:cy="863.06238"
       sodipodi:r1="217.12248"
       sodipodi:r2="108.56124"
       sodipodi:arg1="0.95054684"
       sodipodi:arg2="1.5788654"
       inkscape:flatsided="false"
       inkscape:rounded="0"
       inkscape:randomized="0"
       d="m -416.45961,1039.7422 -127.07585,-68.12212 -128.15862,66.06262 25.51939,-141.90725 -102.43244,-101.47163 142.84771,-19.58136 64.85189,-128.7755 62.76535,129.80528 142.51311,21.88399 -104.05659,99.80543 z"
       inkscape:transform-center-x="-0.54138294"
       inkscape:transform-center-y="-20.217791"
       transform="translate(12765.771,20.502622)" />
    <rect
       style="fill:#008080"
       id="rect2985-99"
       width="4693.4443"
       height="889.70917"
       x="12494.384"
       y="171.82976" />
    <path
       sodipodi:type="star"
       style="fill:#ffffff"
       id="path2989-53"
       sodipodi:sides="5"
       sodipodi:cx="6.3099942"
       sodipodi:cy="825.20239"
       sodipodi:r1="306.6683"
       sodipodi:r2="153.33415"
       sodipodi:arg1="0.93141042"
       sodipodi:arg2="1.559729"
       inkscape:flatsided="false"
       inkscape:rounded="0"
       inkscape:randomized="0"
       d="M 189.29982,1071.2922 8.0069587,978.52715 -171.18831,1075.282 -138.98613,874.19626 -286.37982,733.67031 -85.184913,702.15751 2.9160501,518.55287 95.059155,700.1626 296.90224,727.21465 152.6549,870.96844 z"
       inkscape:transform-center-x="1.0487863"
       inkscape:transform-center-y="-28.284969"
       transform="translate(12800.96,-308.93676)" />
    <path
       sodipodi:type="star"
       style="fill:#ffffff"
       id="path2987-6"
       sodipodi:sides="5"
       sodipodi:cx="-542.65948"
       sodipodi:cy="863.06238"
       sodipodi:r1="217.12248"
       sodipodi:r2="108.56124"
       sodipodi:arg1="0.95054684"
       sodipodi:arg2="1.5788654"
       inkscape:flatsided="false"
       inkscape:rounded="0"
       inkscape:randomized="0"
       d="m -416.45961,1039.7422 -127.07585,-68.12212 -128.15862,66.06262 25.51939,-141.90725 -102.43244,-101.47163 142.84771,-19.58136 64.85189,-128.7755 62.76535,129.80528 142.51311,21.88399 -104.05659,99.80543 z"
       inkscape:transform-center-x="-0.54138294"
       inkscape:transform-center-y="-20.217791"
       transform="translate(13810.559,12.872911)" />
    <path
       sodipodi:type="star"
       style="fill:#ffffff"
       id="path2987-3-1"
       sodipodi:sides="5"
       sodipodi:cx="-542.65948"
       sodipodi:cy="863.06238"
       sodipodi:r1="217.12248"
       sodipodi:r2="108.56124"
       sodipodi:arg1="0.95054684"
       sodipodi:arg2="1.5788654"
       inkscape:flatsided="false"
       inkscape:rounded="0"
       inkscape:randomized="0"
       d="m -416.45961,1039.7422 -127.07585,-68.12212 -128.15862,66.06262 25.51939,-141.90725 -102.43244,-101.47163 142.84771,-19.58136 64.85189,-128.7755 62.76535,129.80528 142.51311,21.88399 -104.05659,99.80543 z"
       inkscape:transform-center-x="-0.54138294"
       inkscape:transform-center-y="-20.217791"
       transform="translate(14750.207,-11.079289)" />
    <path
       sodipodi:type="star"
       style="fill:#ffffff"
       id="path2989-5-05"
       sodipodi:sides="5"
       sodipodi:cx="6.3099942"
       sodipodi:cy="825.20239"
       sodipodi:r1="306.6683"
       sodipodi:r2="153.33415"
       sodipodi:arg1="0.93141042"
       sodipodi:arg2="1.559729"
       inkscape:flatsided="false"
       inkscape:rounded="0"
       inkscape:randomized="0"
       d="M 189.29982,1071.2922 8.0069587,978.52715 -171.18831,1075.282 -138.98613,874.19626 -286.37982,733.67031 -85.184913,702.15751 2.9160501,518.55287 95.059155,700.1626 296.90224,727.21465 152.6549,870.96844 z"
       inkscape:transform-center-x="1.0487863"
       inkscape:transform-center-y="-28.284969"
       transform="translate(13723.268,-299.58177)" />
    <path
       sodipodi:type="star"
       style="fill:#ffffff"
       id="path2989-8-04"
       sodipodi:sides="5"
       sodipodi:cx="6.3099942"
       sodipodi:cy="825.20239"
       sodipodi:r1="306.6683"
       sodipodi:r2="153.33415"
       sodipodi:arg1="0.93141042"
       sodipodi:arg2="1.559729"
       inkscape:flatsided="false"
       inkscape:rounded="0"
       inkscape:randomized="0"
       d="M 189.29982,1071.2922 8.0069587,978.52715 -171.18831,1075.282 -138.98613,874.19626 -286.37982,733.67031 -85.184913,702.15751 2.9160501,518.55287 95.059155,700.1626 296.90224,727.21465 152.6549,870.96844 z"
       inkscape:transform-center-x="1.0487863"
       inkscape:transform-center-y="-28.284969"
       transform="translate(14650.837,-337.44173)" />
    <path
       sodipodi:type="star"
       style="fill:#ffffff"
       id="path2987-3-2-3"
       sodipodi:sides="5"
       sodipodi:cx="-542.65948"
       sodipodi:cy="863.06238"
       sodipodi:r1="217.12248"
       sodipodi:r2="108.56124"
       sodipodi:arg1="0.95054684"
       sodipodi:arg2="1.5788654"
       inkscape:flatsided="false"
       inkscape:rounded="0"
       inkscape:randomized="0"
       d="m -416.45961,1039.7422 -127.07585,-68.12212 -128.15862,66.06262 25.51939,-141.90725 -102.43244,-101.47163 142.84771,-19.58136 64.85189,-128.7755 62.76535,129.80528 142.51311,21.88399 -104.05659,99.80543 z"
       inkscape:transform-center-x="-0.54138294"
       inkscape:transform-center-y="-20.217791"
       transform="translate(15639.916,7.850711)" />
    <path
       sodipodi:type="star"
       style="fill:#ffffff"
       id="path2989-8-3-3"
       sodipodi:sides="5"
       sodipodi:cx="6.3099942"
       sodipodi:cy="825.20239"
       sodipodi:r1="306.6683"
       sodipodi:r2="153.33415"
       sodipodi:arg1="0.93141042"
       sodipodi:arg2="1.559729"
       inkscape:flatsided="false"
       inkscape:rounded="0"
       inkscape:randomized="0"
       d="M 189.29982,1071.2922 8.0069587,978.52715 -171.18831,1075.282 -138.98613,874.19626 -286.37982,733.67031 -85.184913,702.15751 2.9160501,518.55287 95.059155,700.1626 296.90224,727.21465 152.6549,870.96844 z"
       inkscape:transform-center-x="1.0487863"
       inkscape:transform-center-y="-28.284969"
       transform="translate(15572.096,-324.82175)" />
    <path
       sodipodi:type="star"
       style="fill:#ffffff"
       id="path2987-3-2-7-68"
       sodipodi:sides="5"
       sodipodi:cx="-542.65948"
       sodipodi:cy="863.06238"
       sodipodi:r1="217.12248"
       sodipodi:r2="108.56124"
       sodipodi:arg1="0.95054684"
       sodipodi:arg2="1.5788654"
       inkscape:flatsided="false"
       inkscape:rounded="0"
       inkscape:randomized="0"
       d="m -416.45961,1039.7422 -127.07585,-68.12212 -128.15862,66.06262 25.51939,-141.90725 -102.43244,-101.47163 142.84771,-19.58136 64.85189,-128.7755 62.76535,129.80528 142.51311,21.88399 -104.05659,99.80543 z"
       inkscape:transform-center-x="-0.54138294"
       inkscape:transform-center-y="-20.217791"
       transform="translate(16573.795,-4.769289)" />
    <path
       sodipodi:type="star"
       style="fill:#ffffff"
       id="path2989-8-3-0-9"
       sodipodi:sides="5"
       sodipodi:cx="6.3099942"
       sodipodi:cy="825.20239"
       sodipodi:r1="306.6683"
       sodipodi:r2="153.33415"
       sodipodi:arg1="0.93141042"
       sodipodi:arg2="1.559729"
       inkscape:flatsided="false"
       inkscape:rounded="0"
       inkscape:randomized="0"
       d="M 189.29982,1071.2922 8.0069587,978.52715 -171.18831,1075.282 -138.98613,874.19626 -286.37982,733.67031 -85.184913,702.15751 2.9160501,518.55287 95.059155,700.1626 296.90224,727.21465 152.6549,870.96844 z"
       inkscape:transform-center-x="1.0487863"
       inkscape:transform-center-y="-28.284969"
       transform="translate(16455.495,-318.51175)" />
    <path
       sodipodi:type="star"
       style="fill:#ffffff"
       id="path2987-3-2-7-4-4"
       sodipodi:sides="5"
       sodipodi:cx="-542.65948"
       sodipodi:cy="863.06238"
       sodipodi:r1="217.12248"
       sodipodi:r2="108.56124"
       sodipodi:arg1="0.95054684"
       sodipodi:arg2="1.5788654"
       inkscape:flatsided="false"
       inkscape:rounded="0"
       inkscape:randomized="0"
       d="m -416.45961,1039.7422 -127.07585,-68.12212 -128.15862,66.06262 25.51939,-141.90725 -102.43244,-101.47163 142.84771,-19.58136 64.85189,-128.7755 62.76535,129.80528 142.51311,21.88399 -104.05659,99.80543 z"
       inkscape:transform-center-x="-0.54138294"
       inkscape:transform-center-y="-20.217791"
       transform="translate(17451.73,22.373311)" />
  </g>
</svg>
