<?xml version="1.0" encoding="UTF-8" standalone="no"?>
<!-- Created with Inkscape (http://www.inkscape.org/) -->

<svg
   xmlns:dc="http://purl.org/dc/elements/1.1/"
   xmlns:cc="http://creativecommons.org/ns#"
   xmlns:rdf="http://www.w3.org/1999/02/22-rdf-syntax-ns#"
   xmlns:svg="http://www.w3.org/2000/svg"
   xmlns="http://www.w3.org/2000/svg"
   xmlns:sodipodi="http://sodipodi.sourceforge.net/DTD/sodipodi-0.dtd"
   xmlns:inkscape="http://www.inkscape.org/namespaces/inkscape"
   width="1052.3622"
   height="744.09448"
   id="svg2"
   version="1.1"
   inkscape:version="0.48.4 r9939"
   sodipodi:docname="dizzy blue guy.svg"
   inkscape:export-filename="/home/rileyv/star-foot-s-adventure/face.png"
   inkscape:export-xdpi="106.64"
   inkscape:export-ydpi="106.64">
  <defs
     id="defs4" />
  <sodipodi:namedview
     id="base"
     pagecolor="#ffffff"
     bordercolor="#666666"
     borderopacity="1.0"
     inkscape:pageopacity="0.0"
     inkscape:pageshadow="2"
     inkscape:zoom="0.36340996"
     inkscape:cx="626.69548"
     inkscape:cy="500.66178"
     inkscape:document-units="px"
     inkscape:current-layer="layer1"
     showgrid="false"
     inkscape:window-width="1301"
     inkscape:window-height="744"
     inkscape:window-x="65"
     inkscape:window-y="24"
     inkscape:window-maximized="1" />
  <metadata
     id="metadata7">
    <rdf:RDF>
      <cc:Work
         rdf:about="">
        <dc:format>image/svg+xml</dc:format>
        <dc:type
           rdf:resource="http://purl.org/dc/dcmitype/StillImage" />
        <dc:title></dc:title>
      </cc:Work>
    </rdf:RDF>
  </metadata>
  <g
     inkscape:label="Layer 1"
     inkscape:groupmode="layer"
     id="layer1"
     transform="translate(0,-308.2677)">
    <path
       sodipodi:type="arc"
       style="fill:#00ffff"
       id="path3398"
       sodipodi:cx="531.08063"
       sodipodi:cy="349.22363"
       sodipodi:rx="239.39905"
       sodipodi:ry="249.03004"
       d="m 770.47968,349.22363 a 239.39905,249.03004 0 1 1 -478.7981,0 239.39905,249.03004 0 1 1 478.7981,0 z"
       transform="matrix(3.3218391,0,0,2.2430939,-1230.3321,-96.957094)" />
    <path
       sodipodi:type="spiral"
       style="fill:#ff0000;stroke:#000000;stroke-width:1px;stroke-linecap:butt;stroke-linejoin:miter;stroke-opacity:1"
       id="path3402"
       sodipodi:cx="365.97787"
       sodipodi:cy="-59.405785"
       sodipodi:expansion="1"
       sodipodi:revolution="3"
       sodipodi:radius="77.87883"
       sodipodi:argument="-18.290956"
       sodipodi:t0="0"
       d="m 365.97787,-59.405785 c 3.3112,2.069499 -1.15601,5.484444 -3.43964,5.503426 -6.18849,0.05144 -8.87491,-7.270503 -7.56721,-12.38271 2.33918,-9.144538 13.08838,-12.633164 21.32578,-9.630993 12.08872,4.405806 16.47926,18.976669 11.69478,30.268846 -6.37697,15.050695 -24.88884,20.361377 -39.21192,13.758561 -18.02412,-8.30897 -24.26183,-30.812126 -15.82234,-48.154982 10.22136,-21.004523 36.74161,-28.172863 57.09805,-17.886129 23.98936,12.122564 32.09052,42.674957 19.94991,66.041118 C 395.98847,-4.9114912 361.3944,4.1239523 335.0211,-9.8749512 305.05407,-25.781395 295.08332,-64.423563 310.94362,-93.802205 c 17.79285,-32.958395 60.48766,-43.865195 92.87032,-26.141265 35.95088,19.67692 47.7943,66.427722 28.20505,101.81339"
       transform="matrix(1.1966519,0,0,1.613096,-81.49534,722.87994)" />
    <path
       sodipodi:type="star"
       style="fill:#241f1c"
       id="path3408"
       sodipodi:sides="5"
       sodipodi:cx="597.12177"
       sodipodi:cy="446.90945"
       sodipodi:r1="155.78197"
       sodipodi:r2="77.890984"
       sodipodi:arg1="0.62230287"
       sodipodi:arg2="1.2506214"
       inkscape:flatsided="false"
       inkscape:rounded="0"
       inkscape:randomized="0"
       d="m 723.70057,537.71599 -102.06397,-16.87394 -71.76198,74.51177 -15.49143,-102.28295 -93.04057,-45.22429 92.48974,-46.34039 14.25974,-102.46192 72.65324,73.643 101.85357,-18.10065 -47.58757,91.85427 z"
       transform="matrix(1.0946812,-0.05132232,0.05472476,1.026621,-11.019793,196.23468)"
       inkscape:transform-center-x="13.472204"
       inkscape:transform-center-y="2.7678689" />
    <path
       sodipodi:type="spiral"
       style="fill:#ff6600;stroke:#000000;stroke-width:1px;stroke-linecap:butt;stroke-linejoin:miter;stroke-opacity:1"
       id="path3404"
       sodipodi:cx="599.87347"
       sodipodi:cy="-86.92292"
       sodipodi:expansion="1"
       sodipodi:revolution="3"
       sodipodi:radius="119.05732"
       sodipodi:argument="-17.866762"
       sodipodi:t0="0"
       d="m 599.87347,-86.92292 c 3.3112,4.966795 -5.06151,6.913868 -8.25514,5.503426 -8.65453,-3.82221 -7.79035,-15.713906 -2.75171,-22.013706 9.01295,-11.26887 26.18445,-9.36588 35.77227,0 14.07052,13.744811 11.0195,36.80838 -2.75171,49.53084 -18.35486,16.957038 -47.48824,12.70827 -63.28941,-5.503429 -19.88415,-22.917565 -14.41561,-58.195131 8.25515,-77.047971 27.45732,-22.83332 68.91731,-16.13377 90.80653,11.00686 25.7957,31.984287 17.85874,79.649032 -13.75857,104.5651 -36.50343,28.7665869 -90.38713,19.5882461 -118.32367,-16.510284 -31.74327,-41.017444 -21.32092,-101.129696 19.262,-132.082236 45.52791,-34.72407 111.87553,-23.05591 145.8408,22.01371 37.7079,50.035819 24.79261,122.623808 -24.76542,159.59937"
       transform="matrix(0.77303236,0,0,1.0005971,192.05039,715.57427)"
       inkscape:transform-center-x="107.31682"
       inkscape:transform-center-y="-597.12177" />
    <path
       sodipodi:type="star"
       style="fill:#000080"
       id="path3410"
       sodipodi:sides="5"
       sodipodi:cx="437.5224"
       sodipodi:cy="232.27582"
       sodipodi:r1="129.53528"
       sodipodi:r2="104.79624"
       sodipodi:arg1="-0.21406068"
       sodipodi:arg2="0.41425785"
       inkscape:flatsided="true"
       inkscape:rounded="0"
       inkscape:randomized="0"
       d="M 564.10121,204.75869 502.80775,344.15616 351.29215,328.9388 318.94382,180.13649 450.46706,103.38895 z"
       transform="matrix(1.8190032,-0.09337402,0.35021549,0.56907161,-342.49434,746.80546)"
       inkscape:transform-center-x="6.6722098"
       inkscape:transform-center-y="-5.7473684" />
  </g>
</svg>
